<svg width="314" height="122" viewBox="0 0 314 122" fill="none" xmlns="http://www.w3.org/2000/svg">
<path d="M130.707 55L119.054 14.2727H128.46L135.202 42.571H135.54L142.977 14.2727H151.031L158.449 42.6307H158.807L165.548 14.2727H174.955L163.301 55H154.909L147.153 28.3722H146.835L139.099 55H130.707ZM182.593 55.5767C180.644 55.5767 178.907 55.2386 177.383 54.5625C175.858 53.8731 174.652 52.8589 173.764 51.5199C172.889 50.1676 172.451 48.4839 172.451 46.4688C172.451 44.7718 172.763 43.3466 173.386 42.1932C174.009 41.0398 174.857 40.1117 175.931 39.4091C177.005 38.7064 178.225 38.1761 179.59 37.8182C180.969 37.4602 182.414 37.2083 183.925 37.0625C185.702 36.8769 187.134 36.7045 188.221 36.5455C189.308 36.3731 190.097 36.1212 190.587 35.7898C191.078 35.4583 191.323 34.9678 191.323 34.3182V34.1989C191.323 32.9394 190.925 31.965 190.13 31.2756C189.348 30.5862 188.234 30.2415 186.789 30.2415C185.264 30.2415 184.051 30.5795 183.15 31.2557C182.248 31.9186 181.652 32.7538 181.36 33.7614L173.525 33.125C173.923 31.2689 174.705 29.6648 175.872 28.3125C177.038 26.947 178.543 25.8996 180.386 25.1705C182.242 24.428 184.389 24.0568 186.829 24.0568C188.526 24.0568 190.15 24.2557 191.701 24.6534C193.265 25.0511 194.651 25.6676 195.857 26.5028C197.077 27.3381 198.038 28.4119 198.741 29.7244C199.443 31.0237 199.795 32.5814 199.795 34.3977V55H191.761V50.7642H191.522C191.032 51.7188 190.375 52.5606 189.553 53.2898C188.731 54.0057 187.744 54.5691 186.59 54.9801C185.437 55.3778 184.104 55.5767 182.593 55.5767ZM185.019 49.7301C186.265 49.7301 187.366 49.4848 188.32 48.9943C189.275 48.4905 190.024 47.8144 190.568 46.9659C191.111 46.1174 191.383 45.1562 191.383 44.0824V40.8409C191.118 41.0133 190.753 41.1723 190.289 41.3182C189.838 41.4508 189.328 41.5767 188.758 41.696C188.188 41.8021 187.618 41.9015 187.048 41.9943C186.478 42.0739 185.961 42.1468 185.497 42.2131C184.502 42.3589 183.634 42.5909 182.891 42.9091C182.149 43.2273 181.572 43.6581 181.161 44.2017C180.75 44.732 180.545 45.3949 180.545 46.1903C180.545 47.3438 180.962 48.2254 181.798 48.8352C182.646 49.4318 183.72 49.7301 185.019 49.7301ZM220.374 24.4545V30.8182H201.98V24.4545H220.374ZM206.156 17.1364H214.627V45.6136C214.627 46.3958 214.747 47.0057 214.985 47.4432C215.224 47.8674 215.555 48.1657 215.98 48.3381C216.417 48.5104 216.921 48.5966 217.491 48.5966C217.889 48.5966 218.286 48.5634 218.684 48.4972C219.082 48.4176 219.387 48.358 219.599 48.3182L220.931 54.6222C220.507 54.7547 219.91 54.9072 219.141 55.0795C218.373 55.2652 217.438 55.3778 216.337 55.4176C214.296 55.4972 212.506 55.2254 210.968 54.6023C209.444 53.9792 208.257 53.0114 207.408 51.6989C206.56 50.3864 206.142 48.7292 206.156 46.7273V17.1364ZM237.245 55.5966C234.103 55.5966 231.399 54.9602 229.132 53.6875C226.878 52.4015 225.141 50.5852 223.921 48.2386C222.702 45.8788 222.092 43.0881 222.092 39.8665C222.092 36.7244 222.702 33.9669 223.921 31.5938C225.141 29.2206 226.858 27.3712 229.072 26.0455C231.299 24.7197 233.911 24.0568 236.907 24.0568C238.922 24.0568 240.798 24.3816 242.535 25.0312C244.285 25.6676 245.81 26.6288 247.109 27.9148C248.421 29.2008 249.442 30.8182 250.171 32.767C250.901 34.7027 251.265 36.9697 251.265 39.5682V41.8949H225.472V36.6449H243.291C243.291 35.4252 243.026 34.3447 242.495 33.4034C241.965 32.4621 241.229 31.7263 240.288 31.196C239.36 30.6525 238.279 30.3807 237.046 30.3807C235.76 30.3807 234.62 30.679 233.626 31.2756C232.645 31.8589 231.876 32.6477 231.319 33.642C230.762 34.6231 230.477 35.7169 230.464 36.9233V41.9148C230.464 43.4261 230.742 44.732 231.299 45.8324C231.869 46.9328 232.671 47.7812 233.705 48.3778C234.74 48.9744 235.966 49.2727 237.384 49.2727C238.326 49.2727 239.187 49.1402 239.97 48.875C240.752 48.6098 241.421 48.2121 241.978 47.6818C242.535 47.1515 242.959 46.5019 243.251 45.733L251.086 46.25C250.688 48.1326 249.873 49.7765 248.64 51.1818C247.42 52.5739 245.843 53.661 243.907 54.4432C241.985 55.2121 239.764 55.5966 237.245 55.5966ZM254.553 55V24.4545H262.767V29.7841H263.085C263.642 27.8883 264.576 26.4564 265.889 25.4886C267.201 24.5076 268.713 24.017 270.423 24.017C270.847 24.017 271.304 24.0436 271.795 24.0966C272.285 24.1496 272.716 24.2225 273.088 24.3153V31.8324C272.69 31.7131 272.14 31.607 271.437 31.5142C270.734 31.4214 270.091 31.375 269.508 31.375C268.262 31.375 267.148 31.6468 266.167 32.1903C265.199 32.7206 264.43 33.4631 263.86 34.4176C263.303 35.3722 263.025 36.4725 263.025 37.7188V55H254.553ZM119.989 73.3722V66.2727H153.438V73.3722H140.969V107H132.457V73.3722H119.989ZM153.375 107V76.4545H161.588V81.7841H161.906C162.463 79.8883 163.398 78.4564 164.71 77.4886C166.023 76.5076 167.534 76.017 169.244 76.017C169.669 76.017 170.126 76.0436 170.617 76.0966C171.107 76.1496 171.538 76.2225 171.909 76.3153V83.8324C171.511 83.7131 170.961 83.607 170.259 83.5142C169.556 83.4214 168.913 83.375 168.33 83.375C167.083 83.375 165.97 83.6468 164.989 84.1903C164.021 84.7206 163.252 85.4631 162.682 86.4176C162.125 87.3722 161.847 88.4725 161.847 89.7188V107H153.375ZM181.884 107.577C179.935 107.577 178.199 107.239 176.674 106.562C175.149 105.873 173.943 104.859 173.055 103.52C172.18 102.168 171.742 100.484 171.742 98.4688C171.742 96.7718 172.054 95.3466 172.677 94.1932C173.3 93.0398 174.149 92.1117 175.222 91.4091C176.296 90.7064 177.516 90.1761 178.882 89.8182C180.26 89.4602 181.705 89.2083 183.217 89.0625C184.993 88.8769 186.425 88.7045 187.512 88.5455C188.599 88.3731 189.388 88.1212 189.879 87.7898C190.369 87.4583 190.614 86.9678 190.614 86.3182V86.1989C190.614 84.9394 190.217 83.965 189.421 83.2756C188.639 82.5862 187.525 82.2415 186.08 82.2415C184.556 82.2415 183.343 82.5795 182.441 83.2557C181.54 83.9186 180.943 84.7538 180.651 85.7614L172.816 85.125C173.214 83.2689 173.996 81.6648 175.163 80.3125C176.329 78.947 177.834 77.8996 179.677 77.1705C181.533 76.428 183.681 76.0568 186.12 76.0568C187.817 76.0568 189.441 76.2557 190.992 76.6534C192.557 77.0511 193.942 77.6676 195.149 78.5028C196.368 79.3381 197.329 80.4119 198.032 81.7244C198.735 83.0237 199.086 84.5814 199.086 86.3977V107H191.052V102.764H190.813C190.323 103.719 189.667 104.561 188.845 105.29C188.023 106.006 187.035 106.569 185.882 106.98C184.728 107.378 183.396 107.577 181.884 107.577ZM184.31 101.73C185.557 101.73 186.657 101.485 187.612 100.994C188.566 100.491 189.315 99.8144 189.859 98.9659C190.402 98.1174 190.674 97.1562 190.674 96.0824V92.8409C190.409 93.0133 190.044 93.1723 189.58 93.3182C189.13 93.4508 188.619 93.5767 188.049 93.696C187.479 93.8021 186.909 93.9015 186.339 93.9943C185.769 94.0739 185.252 94.1468 184.788 94.2131C183.793 94.3589 182.925 94.5909 182.183 94.9091C181.44 95.2273 180.864 95.6581 180.453 96.2017C180.042 96.732 179.836 97.3949 179.836 98.1903C179.836 99.3438 180.254 100.225 181.089 100.835C181.937 101.432 183.011 101.73 184.31 101.73ZM217.22 107.597C214.091 107.597 211.4 106.934 209.146 105.608C206.905 104.269 205.182 102.413 203.975 100.04C202.782 97.6667 202.186 94.9356 202.186 91.8466C202.186 88.7178 202.789 85.9735 203.995 83.6136C205.215 81.2405 206.945 79.3911 209.186 78.0653C211.426 76.7263 214.091 76.0568 217.18 76.0568C219.845 76.0568 222.178 76.5407 224.18 77.5085C226.182 78.4763 227.766 79.8352 228.933 81.5852C230.099 83.3352 230.742 85.3902 230.862 87.75H222.867C222.642 86.2254 222.045 84.9991 221.078 84.071C220.123 83.1297 218.87 82.6591 217.319 82.6591C216.007 82.6591 214.86 83.017 213.879 83.733C212.911 84.4356 212.155 85.4631 211.612 86.8153C211.068 88.1676 210.796 89.8049 210.796 91.7273C210.796 93.6761 211.061 95.3333 211.592 96.6989C212.135 98.0644 212.898 99.1051 213.879 99.821C214.86 100.537 216.007 100.895 217.319 100.895C218.287 100.895 219.155 100.696 219.924 100.298C220.706 99.9006 221.349 99.3239 221.853 98.5682C222.37 97.7992 222.708 96.8778 222.867 95.804H230.862C230.729 98.1373 230.093 100.192 228.953 101.969C227.826 103.732 226.268 105.111 224.279 106.105C222.291 107.099 219.937 107.597 217.22 107.597ZM241.722 98.2102L241.742 88.0483H242.975L252.759 76.4545H262.483L249.338 91.8068H247.33L241.722 98.2102ZM234.046 107V66.2727H242.517V107H234.046ZM253.137 107L244.148 93.696L249.796 87.7102L263.06 107H253.137ZM277.062 107.597C273.92 107.597 271.215 106.96 268.948 105.688C266.695 104.402 264.958 102.585 263.738 100.239C262.519 97.8788 261.909 95.0881 261.909 91.8665C261.909 88.7244 262.519 85.9669 263.738 83.5938C264.958 81.2206 266.675 79.3712 268.889 78.0455C271.116 76.7197 273.728 76.0568 276.724 76.0568C278.739 76.0568 280.615 76.3816 282.352 77.0312C284.102 77.6676 285.626 78.6288 286.926 79.9148C288.238 81.2008 289.259 82.8182 289.988 84.767C290.717 86.7027 291.082 88.9697 291.082 91.5682V93.8949H265.289V88.6449H283.108C283.108 87.4252 282.842 86.3447 282.312 85.4034C281.782 84.4621 281.046 83.7263 280.105 83.196C279.177 82.6525 278.096 82.3807 276.863 82.3807C275.577 82.3807 274.437 82.679 273.443 83.2756C272.462 83.8589 271.693 84.6477 271.136 85.642C270.579 86.6231 270.294 87.7169 270.281 88.9233V93.9148C270.281 95.4261 270.559 96.732 271.116 97.8324C271.686 98.9328 272.488 99.7812 273.522 100.378C274.556 100.974 275.783 101.273 277.201 101.273C278.143 101.273 279.004 101.14 279.787 100.875C280.569 100.61 281.238 100.212 281.795 99.6818C282.352 99.1515 282.776 98.5019 283.068 97.733L290.903 98.25C290.505 100.133 289.69 101.777 288.457 103.182C287.237 104.574 285.66 105.661 283.724 106.443C281.802 107.212 279.581 107.597 277.062 107.597ZM294.37 107V76.4545H302.583V81.7841H302.902C303.458 79.8883 304.393 78.4564 305.706 77.4886C307.018 76.5076 308.529 76.017 310.24 76.017C310.664 76.017 311.121 76.0436 311.612 76.0966C312.102 76.1496 312.533 76.2225 312.904 76.3153V83.8324C312.507 83.7131 311.957 83.607 311.254 83.5142C310.551 83.4214 309.908 83.375 309.325 83.375C308.079 83.375 306.965 83.6468 305.984 84.1903C305.016 84.7206 304.247 85.4631 303.677 86.4176C303.12 87.3722 302.842 88.4725 302.842 89.7188V107H294.37Z" fill="#51ACC2"/>
<path d="M88.6044 16.7252C88.265 15.5456 87.7883 14.5033 87.1742 13.5983C86.5602 12.6772 85.8088 11.9016 84.92 11.2714C84.0473 10.625 83.0454 10.1321 81.9143 9.79275C80.7992 9.45339 79.563 9.28372 78.2056 9.28372C75.6685 9.28372 73.4385 9.91394 71.5155 11.1744C69.6087 12.4348 68.122 14.269 67.0554 16.6768C65.9889 19.0684 65.4556 21.9933 65.4556 25.4514C65.4556 28.9096 65.9808 31.8507 67.0312 34.2746C68.0816 36.6986 69.5683 38.5488 71.4913 39.8254C73.4143 41.0859 75.6847 41.7161 78.3026 41.7161C80.678 41.7161 82.7061 41.296 84.3867 40.4557C86.0835 39.5992 87.3762 38.3953 88.265 36.844C89.17 35.2927 89.6224 33.4585 89.6224 31.3416L91.7555 31.6567H78.957V23.7547H99.7303V30.0085C99.7303 34.3716 98.8092 38.1206 96.967 41.2556C95.1248 44.3744 92.5877 46.7822 89.3558 48.4789C86.1239 50.1595 82.4233 50.9998 78.2541 50.9998C73.6001 50.9998 69.5117 49.9737 65.9889 47.9214C62.4661 45.853 59.7189 42.92 57.7474 39.1225C55.7921 35.3088 54.8145 30.7841 54.8145 25.5484C54.8145 21.5246 55.3962 17.9372 56.5597 14.7861C57.7394 11.6188 59.3876 8.93629 61.5046 6.73857C63.6215 4.54086 66.0858 2.86834 68.8976 1.721C71.7094 0.573667 74.7555 0 78.0359 0C80.8477 0 83.4656 0.412071 85.8896 1.23621C88.3135 2.0442 90.4627 3.19153 92.3373 4.67822C94.228 6.1649 95.7712 7.93439 96.967 9.98666C98.1628 12.0228 98.9304 14.269 99.2698 16.7252H88.6044Z" fill="#5DDE52"/>
<path d="M18.2471 50.3211H7L24.1374 0.678711H37.663L54.7761 50.3211H43.529L31.0941 12.0228H30.7063L18.2471 50.3211ZM17.5442 30.8084H44.1107V39.0013H17.5442V30.8084Z" fill="#5DDE52"/>
<path d="M22.0843 60.3183C22.0843 62.1509 21.537 63.6362 20.8618 63.6362C20.1866 63.6362 19.6396 62.1506 19.6396 60.3183C19.6396 58.4856 20.8618 57 20.8618 57C20.8618 57 22.0843 58.4856 22.0843 60.3183Z" fill="#5DDE52"/>
<path d="M21.9967 63.6604C21.3101 64.3471 20.8028 65.0719 20.5449 65.6755V66.9111C21.0553 67.3303 22.4605 66.6681 23.7324 65.3959C25.0333 64.0948 25.2201 62.1719 25.2201 62.1719C25.2201 62.1719 23.298 62.359 21.9967 63.6604Z" fill="#5DDE52"/>
<path d="M19.6948 63.6604C20.3817 64.3471 20.889 65.0719 21.1469 65.6755V66.9111C20.6362 67.3303 19.2309 66.6681 17.9594 65.3959C16.6585 64.0948 16.4717 62.1719 16.4717 62.1719C16.4717 62.1719 18.3941 62.359 19.6948 63.6604Z" fill="#5DDE52"/>
<path d="M21.9967 67.4524C21.3101 68.1391 20.8028 68.8639 20.5449 69.4675V70.7031C21.0553 71.1223 22.4605 70.4601 23.7324 69.1879C25.0333 67.8868 25.2201 65.9639 25.2201 65.9639C25.2201 65.9639 23.298 66.151 21.9967 67.4524Z" fill="#5DDE52"/>
<path d="M19.6948 67.4524C20.3817 68.1391 20.889 68.8639 21.1469 69.4675V70.7031C20.6362 71.1223 19.2309 70.4601 17.9594 69.1879C16.6585 67.8868 16.4717 65.9639 16.4717 65.9639C16.4717 65.9639 18.3941 66.151 19.6948 67.4524Z" fill="#5DDE52"/>
<path d="M21.9967 71.2229C21.3101 71.9096 20.8028 72.6344 20.5449 73.238V74.4736C21.0553 74.8928 22.4605 74.2306 23.7324 72.9584C25.0333 71.6573 25.2201 69.7344 25.2201 69.7344C25.2201 69.7344 23.298 69.9215 21.9967 71.2229Z" fill="#5DDE52"/>
<path d="M19.6948 71.2229C20.3817 71.9096 20.889 72.6344 21.1469 73.238V74.4736C20.6362 74.8928 19.2309 74.2306 17.9594 72.9584C16.6585 71.6573 16.4717 69.7344 16.4717 69.7344C16.4717 69.7344 18.3941 69.9215 19.6948 71.2229Z" fill="#5DDE52"/>
<path d="M21.1482 73.8926V77.814H20.5449V73.8926H21.1482Z" fill="#5DDE52"/>
<path d="M21.2974 73.7422V77.9652H20.3926V73.7422H21.2974ZM20.6942 77.6636H20.9958V74.0438H20.6942V77.6636Z" fill="#5DDE52"/>
<path d="M34.8129 62.5652C34.8129 64.3978 34.2656 65.8831 33.5904 65.8831C32.9151 65.8831 32.3682 64.3975 32.3682 62.5652C32.3682 60.7326 33.5904 59.2471 33.5904 59.2471C33.5904 59.2471 34.8129 60.7326 34.8129 62.5652Z" fill="#5DDE52"/>
<path d="M34.7233 65.9064C34.0366 66.5931 33.5293 67.3179 33.2715 67.9215V69.157C33.7819 69.5762 35.1872 68.9141 36.459 67.6419C37.76 66.3408 37.9468 64.418 37.9468 64.418C37.9468 64.418 36.0246 64.6051 34.7233 65.9064Z" fill="#5DDE52"/>
<path d="M32.4224 65.9064C33.1094 66.5931 33.6167 67.3179 33.8745 67.9215V69.157C33.3638 69.5762 31.9586 68.9141 30.687 67.6419C29.386 66.3408 29.1992 64.418 29.1992 64.418C29.1992 64.418 31.1217 64.6051 32.4224 65.9064Z" fill="#5DDE52"/>
<path d="M34.7233 69.6984C34.0366 70.3851 33.5293 71.1099 33.2715 71.7134V72.949C33.7819 73.3682 35.1872 72.7061 36.459 71.4339C37.76 70.1328 37.9468 68.21 37.9468 68.21C37.9468 68.21 36.0246 68.3971 34.7233 69.6984Z" fill="#5DDE52"/>
<path d="M32.4224 69.6984C33.1094 70.3851 33.6167 71.1099 33.8745 71.7134V72.949C33.3638 73.3682 31.9586 72.7061 30.687 71.4339C29.386 70.1328 29.1992 68.21 29.1992 68.21C29.1992 68.21 31.1217 68.3971 32.4224 69.6984Z" fill="#5DDE52"/>
<path d="M34.7233 73.4689C34.0366 74.1556 33.5293 74.8804 33.2715 75.484V76.7195C33.7819 77.1387 35.1872 76.4766 36.459 75.2044C37.76 73.9033 37.9468 71.9805 37.9468 71.9805C37.9468 71.9805 36.0246 72.1676 34.7233 73.4689Z" fill="#5DDE52"/>
<path d="M32.4224 73.4689C33.1094 74.1556 33.6167 74.8804 33.8745 75.484V76.7195C33.3638 77.1387 31.9586 76.4766 30.687 75.2044C29.386 73.9033 29.1992 71.9805 29.1992 71.9805C29.1992 71.9805 31.1217 72.1676 32.4224 73.4689Z" fill="#5DDE52"/>
<path d="M33.8747 76.1377V80.059H33.2715V76.1377H33.8747Z" fill="#5DDE52"/>
<path d="M34.027 75.9873V80.2102H33.1221V75.9873H34.027ZM33.4237 79.9086H33.7253V76.2889H33.4237V79.9086Z" fill="#5DDE52"/>
<path d="M75.2416 62.5652C75.2416 64.3978 74.6943 65.8831 74.0191 65.8831C73.3439 65.8831 72.7969 64.3975 72.7969 62.5652C72.7969 60.7326 74.0191 59.2471 74.0191 59.2471C74.0191 59.2471 75.2416 60.7326 75.2416 62.5652Z" fill="#5DDE52"/>
<path d="M75.1549 65.9064C74.4683 66.5931 73.961 67.3179 73.7031 67.9215V69.157C74.2135 69.5762 75.6188 68.9141 76.8907 67.6419C78.1917 66.3408 78.3785 64.418 78.3785 64.418C78.3785 64.418 76.4563 64.6051 75.1549 65.9064Z" fill="#5DDE52"/>
<path d="M72.8541 65.9064C73.541 66.5931 74.0483 67.3179 74.3062 67.9215V69.157C73.7955 69.5762 72.3902 68.9141 71.1187 67.6419C69.8176 66.3408 69.6309 64.418 69.6309 64.418C69.6309 64.418 71.5534 64.6051 72.8541 65.9064Z" fill="#5DDE52"/>
<path d="M75.1549 69.6984C74.4683 70.3851 73.961 71.1099 73.7031 71.7134V72.949C74.2135 73.3682 75.6188 72.7061 76.8907 71.4339C78.1917 70.1328 78.3785 68.21 78.3785 68.21C78.3785 68.21 76.4563 68.3971 75.1549 69.6984Z" fill="#5DDE52"/>
<path d="M72.8541 69.6984C73.541 70.3851 74.0483 71.1099 74.3062 71.7134V72.949C73.7955 73.3682 72.3902 72.7061 71.1187 71.4339C69.8176 70.1328 69.6309 68.21 69.6309 68.21C69.6309 68.21 71.5534 68.3971 72.8541 69.6984Z" fill="#5DDE52"/>
<path d="M75.1549 73.4689C74.4683 74.1556 73.961 74.8804 73.7031 75.484V76.7195C74.2135 77.1387 75.6188 76.4766 76.8907 75.2044C78.1917 73.9033 78.3785 71.9805 78.3785 71.9805C78.3785 71.9805 76.4563 72.1676 75.1549 73.4689Z" fill="#5DDE52"/>
<path d="M72.8541 73.4689C73.541 74.1556 74.0483 74.8804 74.3062 75.484V76.7195C73.7955 77.1387 72.3902 76.4766 71.1187 75.2044C69.8176 73.9033 69.6309 71.9805 69.6309 71.9805C69.6309 71.9805 71.5534 72.1676 72.8541 73.4689Z" fill="#5DDE52"/>
<path d="M74.3064 76.1377V80.059H73.7031V76.1377H74.3064Z" fill="#5DDE52"/>
<path d="M74.4557 75.9873V80.2102H73.5508V75.9873H74.4557ZM73.8524 79.9086H74.154V76.2889H73.8524V79.9086Z" fill="#5DDE52"/>
<path d="M87.9702 60.3181C87.9702 62.1506 87.4229 63.6358 86.7476 63.6358C86.0724 63.6358 85.5254 62.1503 85.5254 60.3181C85.5254 58.4855 86.7476 57 86.7476 57C86.7476 57 87.9702 58.4855 87.9702 60.3181Z" fill="#5DDE52"/>
<path d="M87.8815 63.6603C87.1949 64.347 86.6875 65.0718 86.4297 65.6753V66.9108C86.9401 67.33 88.3454 66.6679 89.6173 65.3957C90.9183 64.0947 91.1051 62.1719 91.1051 62.1719C91.1051 62.1719 89.1829 62.359 87.8815 63.6603Z" fill="#5DDE52"/>
<path d="M85.5807 63.6603C86.2677 64.347 86.775 65.0718 87.0329 65.6753V66.9108C86.5221 67.33 85.1168 66.6679 83.8453 65.3957C82.5442 64.0947 82.3574 62.1719 82.3574 62.1719C82.3574 62.1719 84.28 62.359 85.5807 63.6603Z" fill="#5DDE52"/>
<path d="M87.8815 67.4523C87.1949 68.139 86.6875 68.8638 86.4297 69.4673V70.7028C86.9401 71.122 88.3454 70.4599 89.6173 69.1877C90.9183 67.8867 91.1051 65.9639 91.1051 65.9639C91.1051 65.9639 89.1829 66.151 87.8815 67.4523Z" fill="#5DDE52"/>
<path d="M85.5807 67.4523C86.2677 68.139 86.775 68.8638 87.0329 69.4673V70.7028C86.5221 71.122 85.1168 70.4599 83.8453 69.1877C82.5442 67.8867 82.3574 65.9639 82.3574 65.9639C82.3574 65.9639 84.28 66.151 85.5807 67.4523Z" fill="#5DDE52"/>
<path d="M87.8815 71.2228C87.1949 71.9095 86.6875 72.6343 86.4297 73.2378V74.4733C86.9401 74.8925 88.3454 74.2304 89.6173 72.9582C90.9183 71.6572 91.1051 69.7344 91.1051 69.7344C91.1051 69.7344 89.1829 69.9215 87.8815 71.2228Z" fill="#5DDE52"/>
<path d="M85.5807 71.2228C86.2677 71.9095 86.775 72.6343 87.0329 73.2378V74.4733C86.5221 74.8925 85.1168 74.2304 83.8453 72.9582C82.5442 71.6572 82.3574 69.7344 82.3574 69.7344C82.3574 69.7344 84.28 69.9215 85.5807 71.2228Z" fill="#5DDE52"/>
<path d="M87.033 73.8916V77.8128H86.4297V73.8916H87.033Z" fill="#5DDE52"/>
<path d="M87.1822 73.7412V77.964H86.2773V73.7412H87.1822ZM86.579 77.6624H86.8806V74.0428H86.579V77.6624Z" fill="#5DDE52"/>
<path d="M47.5403 65.5596C47.5403 67.3923 46.993 68.8776 46.3178 68.8776C45.6427 68.8776 45.0957 67.392 45.0957 65.5596C45.0957 63.7268 46.3178 62.2412 46.3178 62.2412C46.3178 62.2412 47.5403 63.7268 47.5403 65.5596Z" fill="#5DDE52"/>
<path d="M47.4517 68.9016C46.7651 69.5883 46.2578 70.3132 46 70.9168V72.1524C46.5104 72.5716 47.9156 71.9095 49.1873 70.6372C50.4883 69.3361 50.6751 67.4131 50.6751 67.4131C50.6751 67.4131 48.753 67.6002 47.4517 68.9016Z" fill="#5DDE52"/>
<path d="M45.1508 68.9016C45.8377 69.5883 46.345 70.3132 46.6028 70.9168V72.1524C46.0921 72.5716 44.6869 71.9095 43.4154 70.6372C42.1145 69.3361 41.9277 67.4131 41.9277 67.4131C41.9277 67.4131 43.8501 67.6002 45.1508 68.9016Z" fill="#5DDE52"/>
<path d="M47.4517 72.6936C46.7651 73.3803 46.2578 74.1052 46 74.7088V75.9444C46.5104 76.3636 47.9156 75.7014 49.1873 74.4292C50.4883 73.1281 50.6751 71.2051 50.6751 71.2051C50.6751 71.2051 48.753 71.3922 47.4517 72.6936Z" fill="#5DDE52"/>
<path d="M45.1508 72.6936C45.8377 73.3803 46.345 74.1052 46.6028 74.7088V75.9444C46.0921 76.3636 44.6869 75.7014 43.4154 74.4292C42.1145 73.1281 41.9277 71.2051 41.9277 71.2051C41.9277 71.2051 43.8501 71.3922 45.1508 72.6936Z" fill="#5DDE52"/>
<path d="M47.4517 76.4641C46.7651 77.1509 46.2578 77.8757 46 78.4793V79.7149C46.5104 80.1342 47.9156 79.472 49.1873 78.1997C50.4883 76.8986 50.6751 74.9756 50.6751 74.9756C50.6751 74.9756 48.753 75.1627 47.4517 76.4641Z" fill="#5DDE52"/>
<path d="M45.1508 76.4641C45.8377 77.1509 46.345 77.8757 46.6028 78.4793V79.7149C46.0921 80.1342 44.6869 79.472 43.4154 78.1997C42.1145 76.8986 41.9277 74.9756 41.9277 74.9756C41.9277 74.9756 43.8501 75.1627 45.1508 76.4641Z" fill="#5DDE52"/>
<path d="M46.6032 79.1328V83.0543H46V79.1328H46.6032Z" fill="#5DDE52"/>
<path d="M46.7525 78.9824V83.2056H45.8477V78.9824H46.7525ZM46.1493 82.9039H46.4509V79.2841H46.1493V82.9039Z" fill="#5DDE52"/>
<path d="M62.513 65.5596C62.513 67.3923 61.9657 68.8776 61.2905 68.8776C60.6153 68.8776 60.0684 67.392 60.0684 65.5596C60.0684 63.7268 61.2905 62.2412 61.2905 62.2412C61.2905 62.2412 62.513 63.7268 62.513 65.5596Z" fill="#5DDE52"/>
<path d="M62.4244 68.9016C61.7378 69.5883 61.2305 70.3132 60.9727 70.9168V72.1524C61.483 72.5716 62.8882 71.9095 64.16 70.6372C65.4609 69.3361 65.6477 67.4131 65.6477 67.4131C65.6477 67.4131 63.7256 67.6002 62.4244 68.9016Z" fill="#5DDE52"/>
<path d="M60.1234 68.9016C60.8103 69.5883 61.3176 70.3132 61.5754 70.9168V72.1524C61.0648 72.5716 59.6596 71.9095 58.3881 70.6372C57.0872 69.3361 56.9004 67.4131 56.9004 67.4131C56.9004 67.4131 58.8228 67.6002 60.1234 68.9016Z" fill="#5DDE52"/>
<path d="M62.4244 72.6936C61.7378 73.3803 61.2305 74.1052 60.9727 74.7088V75.9444C61.483 76.3636 62.8882 75.7014 64.16 74.4292C65.4609 73.1281 65.6477 71.2051 65.6477 71.2051C65.6477 71.2051 63.7256 71.3922 62.4244 72.6936Z" fill="#5DDE52"/>
<path d="M60.1234 72.6936C60.8103 73.3803 61.3176 74.1052 61.5754 74.7088V75.9444C61.0648 76.3636 59.6596 75.7014 58.3881 74.4292C57.0872 73.1281 56.9004 71.2051 56.9004 71.2051C56.9004 71.2051 58.8228 71.3922 60.1234 72.6936Z" fill="#5DDE52"/>
<path d="M62.4244 76.4641C61.7378 77.1509 61.2305 77.8757 60.9727 78.4793V79.7149C61.483 80.1342 62.8882 79.472 64.16 78.1997C65.4609 76.8986 65.6477 74.9756 65.6477 74.9756C65.6477 74.9756 63.7256 75.1627 62.4244 76.4641Z" fill="#5DDE52"/>
<path d="M60.1234 76.4641C60.8103 77.1509 61.3176 77.8757 61.5754 78.4793V79.7149C61.0648 80.1342 59.6596 79.472 58.3881 78.1997C57.0872 76.8986 56.9004 74.9756 56.9004 74.9756C56.9004 74.9756 58.8228 75.1627 60.1234 76.4641Z" fill="#5DDE52"/>
<path d="M61.5759 79.1328V83.0543H60.9727V79.1328H61.5759Z" fill="#5DDE52"/>
<path d="M61.7271 78.9824V83.2056H60.8223V78.9824H61.7271ZM61.1239 82.9039H61.4255V79.2841H61.1239V82.9039Z" fill="#5DDE52"/>
<path d="M105.568 79.4619C86.4561 88.1812 73.6474 103.375 63.3545 120.206C60.264 120.976 57.1083 121.389 53.9072 121.389C52.712 121.389 51.5245 121.345 50.3457 121.261C63.2243 103.797 80.9689 87.8465 105.568 79.4619ZM104.819 77.9648C78.7397 83.9331 59.9555 101.486 43.4404 120.284C39.28 119.398 35.2617 117.996 31.4346 116.134C49.5173 98.1309 73.6656 81.9913 104.819 77.9648ZM105.854 81.1865C96.2711 89.0718 89.5632 98.5035 84.6367 108.746C80.6678 112.112 76.4307 114.942 71.998 117.065C79.7214 103.579 90.6187 90.9387 105.999 80.8984C105.951 80.9944 105.903 81.0907 105.854 81.1865ZM100.822 75.8281C72.6294 82.9351 46.4592 93.1777 26.8496 113.629C24.1976 112.017 21.6556 110.179 19.2432 108.135L19.1064 107.977L18.6855 107.009C14.2941 97.0375 8.35801 87.9029 0 80.2686C9.42632 87.2103 16.9588 95.4289 22.9795 104.334C24.4302 103.047 25.9212 101.808 27.4482 100.613C20.3371 91.9319 11.9185 84.5168 1.48535 79.3477C13.1502 83.6658 23.1611 89.957 31.7568 97.4326C32.8188 96.6931 33.8961 95.9729 34.9893 95.2734C25.6436 87.2848 15.1566 80.9819 2.8916 77.8418C17.0315 79.8869 29.5788 85.0128 40.6533 91.9004C42.2756 91.0026 43.9272 90.144 45.6064 89.3242C33.362 83.5475 20.1248 79.3181 6.41113 75.8311C23.6572 76.9202 39.5633 80.0182 53.7471 85.7354C68.0227 80.0729 83.9688 76.8811 100.822 75.8281Z" fill="#5DDE52"/>
</svg>
